<?xml version="1.0" standalone="no"?><?xml-stylesheet type="text/css" href="https://www.processon.com/themes/default/mind/icons/icons.css" ?><!DOCTYPE svg PUBLIC "-//W3C//DTD SVG 1.1//EN" "http://www.w3.org/Graphics/SVG/1.1/DTD/svg11.dtd"><svg xmlns="http://www.w3.org/2000/svg" xlink="http://www.w3.org/1999/xlink" id="mind-svg-con" version="1.1" width="851.03125px" height="1220px" style="position: absolute; left: 0px; top: 0px; width: 851.03125px; height: 1220px; background-color: rgb(255, 255, 255); z-index: 999; background-position: initial initial; background-repeat: initial initial;"><rect x="0" y="0" width="851.03125" height="1220" fill="#ffffff"></rect><g id="0c6ff2af3504"><rect x="627.03125" y="791" rx="5px" ry="5px" width="69" height="47" style="fill: #ffffff; stroke:rgb(187,187,187);stroke-width:1px;"></rect><g><text y="797.2" text-anchor="start" align="top" anchor="start" font-family="微软雅黑" font-size="17px" font-weight="normal" fill="rgb(68, 68, 68)"><tspan x="638.03125" dy="23"><tspan>Sprint</tspan></tspan></text></g></g><g id="e96d9773898b"><rect x="723.84375" y="664" rx="1px" ry="1px" width="44" height="26" style="fill: #ffffff; stroke:none;"></rect><g><text y="662.8" text-anchor="start" align="top" anchor="start" font-family="微软雅黑" font-size="13px" font-weight="normal" fill="rgb(68, 68, 68)"><tspan x="732.84375" dy="18"><tspan>uuid</tspan></tspan></text></g></g><g id="11041971130c"><rect x="723.84375" y="698" rx="1px" ry="1px" width="51" height="26" style="fill: #ffffff; stroke:none;"></rect><g><text y="696.8" text-anchor="start" align="top" anchor="start" font-family="微软雅黑" font-size="13px" font-weight="normal" fill="rgb(68, 68, 68)"><tspan x="732.84375" dy="18"><tspan>name</tspan></tspan></text></g></g><g id="4c0116d4fba6"><rect x="723.84375" y="732" rx="6px" ry="6px" width="64" height="30" style="fill: rgb(255, 255, 255); stroke:rgb(67, 75, 84);stroke-width:2px;"></rect><g><text y="732.8" text-anchor="start" align="top" anchor="start" font-family="微软雅黑" font-size="13px" font-weight="normal" fill="rgb(67, 75, 84)"><tspan x="734.84375" dy="18"><tspan>project</tspan></tspan></text></g></g><g id="4ec757a017d2"><rect x="723.84375" y="770" rx="1px" ry="1px" width="61" height="26" style="fill: #ffffff; stroke:none;"></rect><g><text y="768.8" text-anchor="start" align="top" anchor="start" font-family="微软雅黑" font-size="13px" font-weight="normal" fill="rgb(68, 68, 68)"><tspan x="732.84375" dy="18"><tspan>version</tspan></tspan></text></g></g><g id="cdc38162614a"><rect x="723.84375" y="804" rx="1px" ry="1px" width="97" height="26" style="fill: #ffffff; stroke:none;"></rect><g><text y="802.8" text-anchor="start" align="top" anchor="start" font-family="微软雅黑" font-size="13px" font-weight="normal" fill="rgb(68, 68, 68)"><tspan x="732.84375" dy="18"><tspan>requirements</tspan></tspan></text></g></g><g id="eb6a84b5ed40"><rect x="723.84375" y="838" rx="1px" ry="1px" width="38" height="26" style="fill: #ffffff; stroke:none;"></rect><g><text y="836.8" text-anchor="start" align="top" anchor="start" font-family="微软雅黑" font-size="13px" font-weight="normal" fill="rgb(68, 68, 68)"><tspan x="732.84375" dy="18"><tspan>rcs</tspan></tspan></text></g></g><g id="bb3d56eebfed"><rect x="723.84375" y="872" rx="1px" ry="1px" width="49" height="26" style="fill: #ffffff; stroke:none;"></rect><g><text y="870.8" text-anchor="start" align="top" anchor="start" font-family="微软雅黑" font-size="13px" font-weight="normal" fill="rgb(68, 68, 68)"><tspan x="732.84375" dy="18"><tspan>issue</tspan></tspan></text></g></g><g id="61f3951f2082"><rect x="723.84375" y="906" rx="1px" ry="1px" width="46" height="26" style="fill: #ffffff; stroke:none;"></rect><g><text y="904.8" text-anchor="start" align="top" anchor="start" font-family="微软雅黑" font-size="13px" font-weight="normal" fill="rgb(68, 68, 68)"><tspan x="732.84375" dy="18"><tspan>case</tspan></tspan></text></g></g><g id="3cd34d4051ed"><rect x="723.84375" y="940" rx="1px" ry="1px" width="55" height="26" style="fill: #ffffff; stroke:none;"></rect><g><text y="938.8" text-anchor="start" align="top" anchor="start" font-family="微软雅黑" font-size="13px" font-weight="normal" fill="rgb(68, 68, 68)"><tspan x="732.84375" dy="18"><tspan>status</tspan></tspan></text></g></g><g id="c7481ba1d296"><rect x="627.03125" y="533" rx="5px" ry="5px" width="78" height="47" style="fill: #ffffff; stroke:rgb(187,187,187);stroke-width:1px;"></rect><g><text y="539.2" text-anchor="start" align="top" anchor="start" font-family="微软雅黑" font-size="17px" font-weight="normal" fill="rgb(68, 68, 68)"><tspan x="638.03125" dy="23"><tspan>Project</tspan></tspan></text></g></g><g id="2e57beeee1d5"><rect x="733.421875" y="476" rx="1px" ry="1px" width="44" height="26" style="fill: #ffffff; stroke:none;"></rect><g><text y="474.8" text-anchor="start" align="top" anchor="start" font-family="微软雅黑" font-size="13px" font-weight="normal" fill="rgb(68, 68, 68)"><tspan x="742.421875" dy="18"><tspan>uuid</tspan></tspan></text></g></g><g id="cb35d5c6dab2"><rect x="733.421875" y="510" rx="1px" ry="1px" width="51" height="26" style="fill: #ffffff; stroke:none;"></rect><g><text y="508.8" text-anchor="start" align="top" anchor="start" font-family="微软雅黑" font-size="13px" font-weight="normal" fill="rgb(68, 68, 68)"><tspan x="742.421875" dy="18"><tspan>name</tspan></tspan></text></g></g><g id="f40cf46bd99b"><rect x="733.421875" y="544" rx="1px" ry="1px" width="61" height="26" style="fill: #ffffff; stroke:none;"></rect><g><text y="542.8" text-anchor="start" align="top" anchor="start" font-family="微软雅黑" font-size="13px" font-weight="normal" fill="rgb(68, 68, 68)"><tspan x="742.421875" dy="18"><tspan>tracker</tspan></tspan></text></g></g><g id="eb22a02a4b84"><rect x="733.421875" y="578" rx="1px" ry="1px" width="60" height="26" style="fill: #ffffff; stroke:none;"></rect><g><text y="576.8" text-anchor="start" align="top" anchor="start" font-family="微软雅黑" font-size="13px" font-weight="normal" fill="rgb(68, 68, 68)"><tspan x="742.421875" dy="18"><tspan>project</tspan></tspan></text></g></g><g id="ec840977e25e"><rect x="733.421875" y="612" rx="1px" ry="1px" width="55" height="26" style="fill: #ffffff; stroke:none;"></rect><g><text y="610.8" text-anchor="start" align="top" anchor="start" font-family="微软雅黑" font-size="13px" font-weight="normal" fill="rgb(68, 68, 68)"><tspan x="742.421875" dy="18"><tspan>status</tspan></tspan></text></g></g><g id="701d6115d7b4"><rect x="627.03125" y="328" rx="5px" ry="5px" width="82" height="47" style="fill: #ffffff; stroke:rgb(187,187,187);stroke-width:1px;"></rect><g><text y="334.2" text-anchor="start" align="top" anchor="start" font-family="微软雅黑" font-size="17px" font-weight="normal" fill="rgb(68, 68, 68)"><tspan x="638.03125" dy="23"><tspan>Tracker</tspan></tspan></text></g></g><g id="3c15b95ccbad"><rect x="737.203125" y="254" rx="1px" ry="1px" width="44" height="26" style="fill: #ffffff; stroke:none;"></rect><g><text y="252.8" text-anchor="start" align="top" anchor="start" font-family="微软雅黑" font-size="13px" font-weight="normal" fill="rgb(68, 68, 68)"><tspan x="746.203125" dy="18"><tspan>uuid</tspan></tspan></text></g></g><g id="26db20443fbf"><rect x="737.203125" y="288" rx="1px" ry="1px" width="51" height="26" style="fill: #ffffff; stroke:none;"></rect><g><text y="286.8" text-anchor="start" align="top" anchor="start" font-family="微软雅黑" font-size="13px" font-weight="normal" fill="rgb(68, 68, 68)"><tspan x="746.203125" dy="18"><tspan>name</tspan></tspan></text></g></g><g id="1792709ee2e5"><rect x="737.203125" y="322" rx="1px" ry="1px" width="44" height="26" style="fill: #ffffff; stroke:none;"></rect><g><text y="320.8" text-anchor="start" align="top" anchor="start" font-family="微软雅黑" font-size="13px" font-weight="normal" fill="rgb(68, 68, 68)"><tspan x="746.203125" dy="18"><tspan>type</tspan></tspan></text></g></g><g id="15190fc8c48e"><rect x="737.203125" y="356" rx="1px" ry="1px" width="41" height="26" style="fill: #ffffff; stroke:none;"></rect><g><text y="354.8" text-anchor="start" align="top" anchor="start" font-family="微软雅黑" font-size="13px" font-weight="normal" fill="rgb(68, 68, 68)"><tspan x="746.203125" dy="18"><tspan>info</tspan></tspan></text></g></g><g id="dd7e71ad3672"><rect x="737.203125" y="390" rx="1px" ry="1px" width="55" height="26" style="fill: #ffffff; stroke:none;"></rect><g><text y="388.8" text-anchor="start" align="top" anchor="start" font-family="微软雅黑" font-size="13px" font-weight="normal" fill="rgb(68, 68, 68)"><tspan x="746.203125" dy="18"><tspan>secret</tspan></tspan></text></g></g><g id="c509cbc3cb86"><rect x="737.203125" y="424" rx="1px" ry="1px" width="55" height="26" style="fill: #ffffff; stroke:none;"></rect><g><text y="422.8" text-anchor="start" align="top" anchor="start" font-family="微软雅黑" font-size="13px" font-weight="normal" fill="rgb(68, 68, 68)"><tspan x="746.203125" dy="18"><tspan>status</tspan></tspan></text></g></g><g id="625cb6845a59"><rect x="128.875" y="1024" rx="1px" ry="1px" width="44" height="26" style="fill: #ffffff; stroke:none;"></rect><g><text y="1022.8" text-anchor="start" align="top" anchor="start" font-family="微软雅黑" font-size="13px" font-weight="normal" fill="rgb(68, 68, 68)"><tspan x="137.875" dy="18"><tspan>uuid</tspan></tspan></text></g></g><g id="e04d2a857178"><rect x="75.765625" y="1058" rx="1px" ry="1px" width="97" height="26" style="fill: #ffffff; stroke:none;"></rect><g><text y="1056.8" text-anchor="start" align="top" anchor="start" font-family="微软雅黑" font-size="13px" font-weight="normal" fill="rgb(68, 68, 68)"><tspan x="84.765625" dy="18"><tspan>captrue_time</tspan></tspan></text></g></g><g id="931778361460"><rect x="116.25" y="1092" rx="6px" ry="6px" width="56" height="30" style="fill: rgb(255, 255, 255); stroke:rgb(67, 75, 84);stroke-width:2px;"></rect><g><text y="1092.8" text-anchor="start" align="top" anchor="start" font-family="微软雅黑" font-size="13px" font-weight="normal" fill="rgb(67, 75, 84)"><tspan x="127.25" dy="18"><tspan>sprint</tspan></tspan></text></g></g><g id="62c81c5b3786"><rect x="121.515625" y="1130" rx="1px" ry="1px" width="51" height="26" style="fill: #ffffff; stroke:none;"></rect><g><text y="1128.8" text-anchor="start" align="top" anchor="start" font-family="微软雅黑" font-size="13px" font-weight="normal" fill="rgb(68, 68, 68)"><tspan x="130.515625" dy="18"><tspan>name</tspan></tspan></text></g></g><g id="ca7184470cf4"><rect x="117.46875" y="1164" rx="1px" ry="1px" width="55" height="26" style="fill: #ffffff; stroke:none;"></rect><g><text y="1162.8" text-anchor="start" align="top" anchor="start" font-family="微软雅黑" font-size="13px" font-weight="normal" fill="rgb(68, 68, 68)"><tspan x="126.46875" dy="18"><tspan>status</tspan></tspan></text></g></g><g id="12d9a4dfb0fc"><rect x="200.390625" y="1083" rx="5px" ry="5px" width="143" height="47" style="fill: #ffffff; stroke:rgb(187,187,187);stroke-width:1px;"></rect><g><text y="1089.2" text-anchor="start" align="top" anchor="start" font-family="微软雅黑" font-size="17px" font-weight="normal" fill="rgb(68, 68, 68)"><tspan x="211.390625" dy="23"><tspan>IssueReqLatest</tspan></tspan></text></g></g><g id="c370687b73de"><rect x="178.46875" y="832" rx="1px" ry="1px" width="44" height="26" style="fill: #ffffff; stroke:none;"></rect><g><text y="830.8" text-anchor="start" align="top" anchor="start" font-family="微软雅黑" font-size="13px" font-weight="normal" fill="rgb(68, 68, 68)"><tspan x="187.46875" dy="18"><tspan>uuid</tspan></tspan></text></g></g><g id="a29a0d7f2b63"><rect x="125.359375" y="866" rx="1px" ry="1px" width="97" height="26" style="fill: #ffffff; stroke:none;"></rect><g><text y="864.8" text-anchor="start" align="top" anchor="start" font-family="微软雅黑" font-size="13px" font-weight="normal" fill="rgb(68, 68, 68)"><tspan x="134.359375" dy="18"><tspan>capture_time</tspan></tspan></text></g></g><g id="7618555ae0b6"><rect x="165.84375" y="900" rx="6px" ry="6px" width="56" height="30" style="fill: rgb(255, 255, 255); stroke:rgb(67, 75, 84);stroke-width:2px;"></rect><g><text y="900.8" text-anchor="start" align="top" anchor="start" font-family="微软雅黑" font-size="13px" font-weight="normal" fill="rgb(67, 75, 84)"><tspan x="176.84375" dy="18"><tspan>sprint</tspan></tspan></text></g></g><g id="4b109d580d9a"><rect x="171.109375" y="938" rx="1px" ry="1px" width="51" height="26" style="fill: #ffffff; stroke:none;"></rect><g><text y="936.8" text-anchor="start" align="top" anchor="start" font-family="微软雅黑" font-size="13px" font-weight="normal" fill="rgb(68, 68, 68)"><tspan x="180.109375" dy="18"><tspan>name</tspan></tspan></text></g></g><g id="82eeaf1ac874"><rect x="167.0625" y="972" rx="1px" ry="1px" width="55" height="26" style="fill: #ffffff; stroke:none;"></rect><g><text y="970.8" text-anchor="start" align="top" anchor="start" font-family="微软雅黑" font-size="13px" font-weight="normal" fill="rgb(68, 68, 68)"><tspan x="176.0625" dy="18"><tspan>status</tspan></tspan></text></g></g><g id="f9a59b2bd9ab"><rect x="249.984375" y="891" rx="5px" ry="5px" width="93" height="47" style="fill: #ffffff; stroke:rgb(187,187,187);stroke-width:1px;"></rect><g><text y="897.2" text-anchor="start" align="top" anchor="start" font-family="微软雅黑" font-size="17px" font-weight="normal" fill="rgb(68, 68, 68)"><tspan x="260.984375" dy="23"><tspan>IssueReq</tspan></tspan></text></g></g><g id="59944c6ca6a3"><rect x="112.96875" y="640" rx="1px" ry="1px" width="44" height="26" style="fill: #ffffff; stroke:none;"></rect><g><text y="638.8" text-anchor="start" align="top" anchor="start" font-family="微软雅黑" font-size="13px" font-weight="normal" fill="rgb(68, 68, 68)"><tspan x="121.96875" dy="18"><tspan>uuid</tspan></tspan></text></g></g><g id="b89b40c66d5c"><rect x="59.859375" y="674" rx="1px" ry="1px" width="97" height="26" style="fill: #ffffff; stroke:none;"></rect><g><text y="672.8" text-anchor="start" align="top" anchor="start" font-family="微软雅黑" font-size="13px" font-weight="normal" fill="rgb(68, 68, 68)"><tspan x="68.859375" dy="18"><tspan>capture_time</tspan></tspan></text></g></g><g id="aa47d2adee7c"><rect x="100.34375" y="708" rx="6px" ry="6px" width="56" height="30" style="fill: rgb(255, 255, 255); stroke:rgb(67, 75, 84);stroke-width:2px;"></rect><g><text y="708.8" text-anchor="start" align="top" anchor="start" font-family="微软雅黑" font-size="13px" font-weight="normal" fill="rgb(67, 75, 84)"><tspan x="111.34375" dy="18"><tspan>sprint</tspan></tspan></text></g></g><g id="c7c2cdeabf01"><rect x="118.484375" y="746" rx="1px" ry="1px" width="38" height="26" style="fill: #ffffff; stroke:none;"></rect><g><text y="744.8" text-anchor="start" align="top" anchor="start" font-family="微软雅黑" font-size="13px" font-weight="normal" fill="rgb(68, 68, 68)"><tspan x="127.484375" dy="18"><tspan>rc</tspan></tspan></text></g></g><g id="4743794ba1fc"><rect x="104.578125" y="780" rx="1px" ry="1px" width="52" height="26" style="fill: #ffffff; stroke:none;"></rect><g><text y="778.8" text-anchor="start" align="top" anchor="start" font-family="微软雅黑" font-size="13px" font-weight="normal" fill="rgb(68, 68, 68)"><tspan x="113.578125" dy="18"><tspan>count</tspan></tspan></text></g></g><g id="3e4080d32525"><rect x="184.484375" y="699" rx="5px" ry="5px" width="159" height="47" style="fill: #ffffff; stroke:rgb(187,187,187);stroke-width:1px;"></rect><g><text y="705.2" text-anchor="start" align="top" anchor="start" font-family="微软雅黑" font-size="17px" font-weight="normal" fill="rgb(68, 68, 68)"><tspan x="195.484375" dy="23"><tspan>IssueSprintLatest</tspan></tspan></text></g></g><g id="14df2449aa14"><rect x="162.546875" y="380" rx="1px" ry="1px" width="44" height="26" style="fill: #ffffff; stroke:none;"></rect><g><text y="378.8" text-anchor="start" align="top" anchor="start" font-family="微软雅黑" font-size="13px" font-weight="normal" fill="rgb(68, 68, 68)"><tspan x="171.546875" dy="18"><tspan>uuid</tspan></tspan></text></g></g><g id="415888da4a74"><rect x="109.4375" y="414" rx="1px" ry="1px" width="97" height="26" style="fill: #ffffff; stroke:none;"></rect><g><text y="412.8" text-anchor="start" align="top" anchor="start" font-family="微软雅黑" font-size="13px" font-weight="normal" fill="rgb(68, 68, 68)"><tspan x="118.4375" dy="18"><tspan>capture_time</tspan></tspan></text></g></g><g id="4c5538faa0bf"><rect x="149.921875" y="448" rx="6px" ry="6px" width="56" height="30" style="fill: rgb(255, 255, 255); stroke:rgb(67, 75, 84);stroke-width:2px;"></rect><g><text y="448.8" text-anchor="start" align="top" anchor="start" font-family="微软雅黑" font-size="13px" font-weight="normal" fill="rgb(67, 75, 84)"><tspan x="160.921875" dy="18"><tspan>sprint</tspan></tspan></text></g></g><g id="215a34723508"><rect x="151.140625" y="486" rx="1px" ry="1px" width="55" height="26" style="fill: #ffffff; stroke:none;"></rect><g><text y="484.8" text-anchor="start" align="top" anchor="start" font-family="微软雅黑" font-size="13px" font-weight="normal" fill="rgb(68, 68, 68)"><tspan x="160.140625" dy="18"><tspan>status</tspan></tspan></text></g></g><g id="32557c93caa9"><rect x="124.6875" y="520" rx="1px" ry="1px" width="81" height="26" style="fill: #ffffff; stroke:none;"></rect><g><text y="518.8" text-anchor="start" align="top" anchor="start" font-family="微软雅黑" font-size="13px" font-weight="normal" fill="rgb(68, 68, 68)"><tspan x="133.6875" dy="18"><tspan>categories</tspan></tspan></text></g></g><g id="f73331474b68"><rect x="115.4375" y="554" rx="1px" ry="1px" width="91" height="26" style="fill: #ffffff; stroke:none;"></rect><g><text y="552.8" text-anchor="start" align="top" anchor="start" font-family="微软雅黑" font-size="13px" font-weight="normal" fill="rgb(68, 68, 68)"><tspan x="124.4375" dy="18"><tspan>found_since</tspan></tspan></text></g></g><g id="7a9bee109deb"><rect x="111.40625" y="588" rx="1px" ry="1px" width="95" height="26" style="fill: #ffffff; stroke:none;"></rect><g><text y="586.8" text-anchor="start" align="top" anchor="start" font-family="微软雅黑" font-size="13px" font-weight="normal" fill="rgb(68, 68, 68)"><tspan x="120.40625" dy="18"><tspan>found_in_rcs</tspan></tspan></text></g></g><g id="ea8f801a2449"><rect x="234.0625" y="473" rx="5px" ry="5px" width="109" height="47" style="fill: #ffffff; stroke:rgb(187,187,187);stroke-width:1px;"></rect><g><text y="479.2" text-anchor="start" align="top" anchor="start" font-family="微软雅黑" font-size="17px" font-weight="normal" fill="rgb(68, 68, 68)"><tspan x="245.0625" dy="23"><tspan>IssueSprint</tspan></tspan></text></g></g><g id="b8062f7885b3"><rect x="83.109375" y="222" rx="1px" ry="1px" width="44" height="26" style="fill: #ffffff; stroke:none;"></rect><g><text y="220.8" text-anchor="start" align="top" anchor="start" font-family="微软雅黑" font-size="13px" font-weight="normal" fill="rgb(68, 68, 68)"><tspan x="92.109375" dy="18"><tspan>uuid</tspan></tspan></text></g></g><g id="f05c63adf731"><rect x="30" y="256" rx="1px" ry="1px" width="97" height="26" style="fill: #ffffff; stroke:none;"></rect><g><text y="254.8" text-anchor="start" align="top" anchor="start" font-family="微软雅黑" font-size="13px" font-weight="normal" fill="rgb(68, 68, 68)"><tspan x="39" dy="18"><tspan>capture_time</tspan></tspan></text></g></g><g id="fdc7d005fad0"><rect x="70.484375" y="290" rx="6px" ry="6px" width="56" height="30" style="fill: rgb(255, 255, 255); stroke:rgb(67, 75, 84);stroke-width:2px;"></rect><g><text y="290.8" text-anchor="start" align="top" anchor="start" font-family="微软雅黑" font-size="13px" font-weight="normal" fill="rgb(67, 75, 84)"><tspan x="81.484375" dy="18"><tspan>sprint</tspan></tspan></text></g></g><g id="2ca5b4455fd1"><rect x="74.71875" y="328" rx="1px" ry="1px" width="52" height="26" style="fill: #ffffff; stroke:none;"></rect><g><text y="326.8" text-anchor="start" align="top" anchor="start" font-family="微软雅黑" font-size="13px" font-weight="normal" fill="rgb(68, 68, 68)"><tspan x="83.71875" dy="18"><tspan>count</tspan></tspan></text></g></g><g id="2afe4675a270"><rect x="154.625" y="264" rx="5px" ry="5px" width="188" height="47" style="fill: #ffffff; stroke:rgb(187,187,187);stroke-width:1px;"></rect><g><text y="270.2" text-anchor="start" align="top" anchor="start" font-family="微软雅黑" font-size="17px" font-weight="normal" fill="rgb(68, 68, 68)"><tspan x="165.625" dy="23"><tspan>IssueCustomerLatest</tspan></tspan></text></g></g><g id="96bb4e1470e3"><rect x="103.375" y="30" rx="1px" ry="1px" width="44" height="26" style="fill: #ffffff; stroke:none;"></rect><g><text y="28.8" text-anchor="start" align="top" anchor="start" font-family="微软雅黑" font-size="13px" font-weight="normal" fill="rgb(68, 68, 68)"><tspan x="112.375" dy="18"><tspan>uuid</tspan></tspan></text></g></g><g id="f57f6b47508c"><rect x="50.265625" y="64" rx="1px" ry="1px" width="97" height="26" style="fill: #ffffff; stroke:none;"></rect><g><text y="62.8" text-anchor="start" align="top" anchor="start" font-family="微软雅黑" font-size="13px" font-weight="normal" fill="rgb(68, 68, 68)"><tspan x="59.265625" dy="18"><tspan>capture_time</tspan></tspan></text></g></g><g id="a1794ced2e99"><rect x="90.75" y="98" rx="6px" ry="6px" width="56" height="30" style="fill: rgb(255, 255, 255); stroke:rgb(67, 75, 84);stroke-width:2px;"></rect><g><text y="98.8" text-anchor="start" align="top" anchor="start" font-family="微软雅黑" font-size="13px" font-weight="normal" fill="rgb(67, 75, 84)"><tspan x="101.75" dy="18"><tspan>sprint</tspan></tspan></text></g></g><g id="83aea7e5f52b"><rect x="65.515625" y="136" rx="1px" ry="1px" width="81" height="26" style="fill: #ffffff; stroke:none;"></rect><g><text y="134.8" text-anchor="start" align="top" anchor="start" font-family="微软雅黑" font-size="13px" font-weight="normal" fill="rgb(68, 68, 68)"><tspan x="74.515625" dy="18"><tspan>categories</tspan></tspan></text></g></g><g id="67bde2bf61eb"><rect x="56.265625" y="170" rx="1px" ry="1px" width="91" height="26" style="fill: #ffffff; stroke:none;"></rect><g><text y="168.8" text-anchor="start" align="top" anchor="start" font-family="微软雅黑" font-size="13px" font-weight="normal" fill="rgb(68, 68, 68)"><tspan x="65.265625" dy="18"><tspan>found_since</tspan></tspan></text></g></g><g id="f89a855fe410"><rect x="174.890625" y="89" rx="5px" ry="5px" width="168" height="47" style="fill: #ffffff; stroke:rgb(187,187,187);stroke-width:1px;"></rect><g><text y="95.2" text-anchor="start" align="top" anchor="start" font-family="微软雅黑" font-size="17px" font-weight="normal" fill="rgb(68, 68, 68)"><tspan x="185.890625" dy="23"><tspan>IssueProjectLatest</tspan></tspan></text></g></g><g transform="translate(627.03125, 664)" id="sdjakdjak0"><g id="subline_0c6ff2af3504" transform="translate(0.5,-0.5)"><path id="line_e96d9773898b" d="M 69 151 L 87 151 L 87 17 A 4 4 0 0 1 91 13 L 96.8125 13" p="0c6ff2af3504" stroke="rgb(140,140,140)" fill="none" stroke-linecap="square" stroke-width="1"></path><path id="line_11041971130c" d="M 69 151 L 87 151 L 87 51 A 4 4 0 0 1 91 47 L 96.8125 47" p="0c6ff2af3504" stroke="rgb(140,140,140)" fill="none" stroke-linecap="square" stroke-width="1"></path><path id="line_4c0116d4fba6" d="M 69 151 L 87 151 L 87 87 A 4 4 0 0 1 91 83 L 96.8125 83" p="0c6ff2af3504" stroke="rgb(140,140,140)" fill="none" stroke-linecap="square" stroke-width="1"></path><path id="line_4ec757a017d2" d="M 69 151 L 87 151 L 87 123 A 4 4 0 0 1 91 119 L 96.8125 119" p="0c6ff2af3504" stroke="rgb(140,140,140)" fill="none" stroke-linecap="square" stroke-width="1"></path><path id="line_cdc38162614a" d="M 69 151 L 87 151 L 87 151 L 96.8125 151" p="0c6ff2af3504" stroke="rgb(140,140,140)" fill="none" stroke-linecap="square" stroke-width="1"></path><path id="line_eb6a84b5ed40" d="M 69 151 L 87 151 L 87 183 A 4 4 0 0 0 91 187 L 96.8125 187" p="0c6ff2af3504" stroke="rgb(140,140,140)" fill="none" stroke-linecap="square" stroke-width="1"></path><path id="line_bb3d56eebfed" d="M 69 151 L 87 151 L 87 217 A 4 4 0 0 0 91 221 L 96.8125 221" p="0c6ff2af3504" stroke="rgb(140,140,140)" fill="none" stroke-linecap="square" stroke-width="1"></path><path id="line_61f3951f2082" d="M 69 151 L 87 151 L 87 251 A 4 4 0 0 0 91 255 L 96.8125 255" p="0c6ff2af3504" stroke="rgb(140,140,140)" fill="none" stroke-linecap="square" stroke-width="1"></path><path id="line_3cd34d4051ed" d="M 69 151 L 87 151 L 87 285 A 4 4 0 0 0 91 289 L 96.8125 289" p="0c6ff2af3504" stroke="rgb(140,140,140)" fill="none" stroke-linecap="square" stroke-width="1"></path></g><g transform="translate(0.5,0)"></g><g class="svg-summary-con" transform="translate(0.5,0.5)"></g></g><g transform="translate(627.03125, 476)" id="sdjakdjak1"><g id="subline_c7481ba1d296" transform="translate(0.5,-0.5)"><path id="line_2e57beeee1d5" d="M 78 81 L 96 81 L 96 17 A 4 4 0 0 1 100 13 L 106.390625 13" p="c7481ba1d296" stroke="rgb(140,140,140)" fill="none" stroke-linecap="square" stroke-width="1"></path><path id="line_cb35d5c6dab2" d="M 78 81 L 96 81 L 96 51 A 4 4 0 0 1 100 47 L 106.390625 47" p="c7481ba1d296" stroke="rgb(140,140,140)" fill="none" stroke-linecap="square" stroke-width="1"></path><path id="line_f40cf46bd99b" d="M 78 81 L 96 81 L 96 81 L 106.390625 81" p="c7481ba1d296" stroke="rgb(140,140,140)" fill="none" stroke-linecap="square" stroke-width="1"></path><path id="line_eb22a02a4b84" d="M 78 81 L 96 81 L 96 111 A 4 4 0 0 0 100 115 L 106.390625 115" p="c7481ba1d296" stroke="rgb(140,140,140)" fill="none" stroke-linecap="square" stroke-width="1"></path><path id="line_ec840977e25e" d="M 78 81 L 96 81 L 96 145 A 4 4 0 0 0 100 149 L 106.390625 149" p="c7481ba1d296" stroke="rgb(140,140,140)" fill="none" stroke-linecap="square" stroke-width="1"></path></g><g transform="translate(0.5,0)"></g><g class="svg-summary-con" transform="translate(0.5,0.5)"></g></g><g transform="translate(627.03125, 254)" id="sdjakdjak2"><g id="subline_701d6115d7b4" transform="translate(0.5,-0.5)"><path id="line_3c15b95ccbad" d="M 82 98 L 100 98 L 100 17 A 4 4 0 0 1 104 13 L 110.171875 13" p="701d6115d7b4" stroke="rgb(140,140,140)" fill="none" stroke-linecap="square" stroke-width="1"></path><path id="line_26db20443fbf" d="M 82 98 L 100 98 L 100 51 A 4 4 0 0 1 104 47 L 110.171875 47" p="701d6115d7b4" stroke="rgb(140,140,140)" fill="none" stroke-linecap="square" stroke-width="1"></path><path id="line_1792709ee2e5" d="M 82 98 L 100 98 L 100 85 A 4 4 0 0 1 104 81 L 110.171875 81" p="701d6115d7b4" stroke="rgb(140,140,140)" fill="none" stroke-linecap="square" stroke-width="1"></path><path id="line_15190fc8c48e" d="M 82 98 L 100 98 L 100 111 A 4 4 0 0 0 104 115 L 110.171875 115" p="701d6115d7b4" stroke="rgb(140,140,140)" fill="none" stroke-linecap="square" stroke-width="1"></path><path id="line_dd7e71ad3672" d="M 82 98 L 100 98 L 100 145 A 4 4 0 0 0 104 149 L 110.171875 149" p="701d6115d7b4" stroke="rgb(140,140,140)" fill="none" stroke-linecap="square" stroke-width="1"></path><path id="line_c509cbc3cb86" d="M 82 98 L 100 98 L 100 179 A 4 4 0 0 0 104 183 L 110.171875 183" p="701d6115d7b4" stroke="rgb(140,140,140)" fill="none" stroke-linecap="square" stroke-width="1"></path></g><g transform="translate(0.5,0)"></g><g class="svg-summary-con" transform="translate(0.5,0.5)"></g></g><g transform="translate(75.765625, 1024)" id="sdjakdjak3"><g id="subline_12d9a4dfb0fc" transform="translate(0.5,-0.5)"><path id="line_625cb6845a59" d="M 124.625 83 L 107 83 L 107 17 A 4 4 0 0 0 103 13 L 97.109375 13" p="12d9a4dfb0fc" stroke="rgb(140,140,140)" fill="none" stroke-linecap="square" stroke-width="1"></path><path id="line_e04d2a857178" d="M 124.625 83 L 107 83 L 107 51 A 4 4 0 0 0 103 47 L 97 47" p="12d9a4dfb0fc" stroke="rgb(140,140,140)" fill="none" stroke-linecap="square" stroke-width="1"></path><path id="line_931778361460" d="M 124.625 83 L 107 83 L 107 83 L 96.484375 83" p="12d9a4dfb0fc" stroke="rgb(140,140,140)" fill="none" stroke-linecap="square" stroke-width="1"></path><path id="line_62c81c5b3786" d="M 124.625 83 L 107 83 L 107 115 A 4 4 0 0 1 103 119 L 96.75 119" p="12d9a4dfb0fc" stroke="rgb(140,140,140)" fill="none" stroke-linecap="square" stroke-width="1"></path><path id="line_ca7184470cf4" d="M 124.625 83 L 107 83 L 107 149 A 4 4 0 0 1 103 153 L 96.703125 153" p="12d9a4dfb0fc" stroke="rgb(140,140,140)" fill="none" stroke-linecap="square" stroke-width="1"></path></g><g transform="translate(0.5,0)"></g><g class="svg-summary-con" transform="translate(0.5,0.5)"></g></g><g transform="translate(125.359375, 832)" id="sdjakdjak4"><g id="subline_f9a59b2bd9ab" transform="translate(0.5,-0.5)"><path id="line_c370687b73de" d="M 124.625 83 L 107 83 L 107 17 A 4 4 0 0 0 103 13 L 97.109375 13" p="f9a59b2bd9ab" stroke="rgb(140,140,140)" fill="none" stroke-linecap="square" stroke-width="1"></path><path id="line_a29a0d7f2b63" d="M 124.625 83 L 107 83 L 107 51 A 4 4 0 0 0 103 47 L 97 47" p="f9a59b2bd9ab" stroke="rgb(140,140,140)" fill="none" stroke-linecap="square" stroke-width="1"></path><path id="line_7618555ae0b6" d="M 124.625 83 L 107 83 L 107 83 L 96.484375 83" p="f9a59b2bd9ab" stroke="rgb(140,140,140)" fill="none" stroke-linecap="square" stroke-width="1"></path><path id="line_4b109d580d9a" d="M 124.625 83 L 107 83 L 107 115 A 4 4 0 0 1 103 119 L 96.75 119" p="f9a59b2bd9ab" stroke="rgb(140,140,140)" fill="none" stroke-linecap="square" stroke-width="1"></path><path id="line_82eeaf1ac874" d="M 124.625 83 L 107 83 L 107 149 A 4 4 0 0 1 103 153 L 96.703125 153" p="f9a59b2bd9ab" stroke="rgb(140,140,140)" fill="none" stroke-linecap="square" stroke-width="1"></path></g><g transform="translate(0.5,0)"></g><g class="svg-summary-con" transform="translate(0.5,0.5)"></g></g><g transform="translate(59.859375, 640)" id="sdjakdjak5"><g id="subline_3e4080d32525" transform="translate(0.5,-0.5)"><path id="line_59944c6ca6a3" d="M 124.625 83 L 107 83 L 107 17 A 4 4 0 0 0 103 13 L 97.109375 13" p="3e4080d32525" stroke="rgb(140,140,140)" fill="none" stroke-linecap="square" stroke-width="1"></path><path id="line_b89b40c66d5c" d="M 124.625 83 L 107 83 L 107 51 A 4 4 0 0 0 103 47 L 97 47" p="3e4080d32525" stroke="rgb(140,140,140)" fill="none" stroke-linecap="square" stroke-width="1"></path><path id="line_aa47d2adee7c" d="M 124.625 83 L 107 83 L 107 83 L 96.484375 83" p="3e4080d32525" stroke="rgb(140,140,140)" fill="none" stroke-linecap="square" stroke-width="1"></path><path id="line_c7c2cdeabf01" d="M 124.625 83 L 107 83 L 107 115 A 4 4 0 0 1 103 119 L 96.625 119" p="3e4080d32525" stroke="rgb(140,140,140)" fill="none" stroke-linecap="square" stroke-width="1"></path><path id="line_4743794ba1fc" d="M 124.625 83 L 107 83 L 107 149 A 4 4 0 0 1 103 153 L 96.71875 153" p="3e4080d32525" stroke="rgb(140,140,140)" fill="none" stroke-linecap="square" stroke-width="1"></path></g><g transform="translate(0.5,0)"></g><g class="svg-summary-con" transform="translate(0.5,0.5)"></g></g><g transform="translate(109.4375, 380)" id="sdjakdjak6"><g id="subline_ea8f801a2449" transform="translate(0.5,-0.5)"><path id="line_14df2449aa14" d="M 124.625 117 L 107 117 L 107 17 A 4 4 0 0 0 103 13 L 97.109375 13" p="ea8f801a2449" stroke="rgb(140,140,140)" fill="none" stroke-linecap="square" stroke-width="1"></path><path id="line_415888da4a74" d="M 124.625 117 L 107 117 L 107 51 A 4 4 0 0 0 103 47 L 97 47" p="ea8f801a2449" stroke="rgb(140,140,140)" fill="none" stroke-linecap="square" stroke-width="1"></path><path id="line_4c5538faa0bf" d="M 124.625 117 L 107 117 L 107 87 A 4 4 0 0 0 103 83 L 96.484375 83" p="ea8f801a2449" stroke="rgb(140,140,140)" fill="none" stroke-linecap="square" stroke-width="1"></path><path id="line_215a34723508" d="M 124.625 117 L 107 117 L 107 117 L 96.703125 117" p="ea8f801a2449" stroke="rgb(140,140,140)" fill="none" stroke-linecap="square" stroke-width="1"></path><path id="line_32557c93caa9" d="M 124.625 117 L 107 117 L 107 149 A 4 4 0 0 1 103 153 L 96.25 153" p="ea8f801a2449" stroke="rgb(140,140,140)" fill="none" stroke-linecap="square" stroke-width="1"></path><path id="line_f73331474b68" d="M 124.625 117 L 107 117 L 107 183 A 4 4 0 0 1 103 187 L 97 187" p="ea8f801a2449" stroke="rgb(140,140,140)" fill="none" stroke-linecap="square" stroke-width="1"></path><path id="line_7a9bee109deb" d="M 124.625 117 L 107 117 L 107 217 A 4 4 0 0 1 103 221 L 96.96875 221" p="ea8f801a2449" stroke="rgb(140,140,140)" fill="none" stroke-linecap="square" stroke-width="1"></path></g><g transform="translate(0.5,0)"></g><g class="svg-summary-con" transform="translate(0.5,0.5)"></g></g><g transform="translate(30, 222)" id="sdjakdjak7"><g id="subline_2afe4675a270" transform="translate(0.5,-0.5)"><path id="line_b8062f7885b3" d="M 124.625 66 L 107 66 L 107 17 A 4 4 0 0 0 103 13 L 97.109375 13" p="2afe4675a270" stroke="rgb(140,140,140)" fill="none" stroke-linecap="square" stroke-width="1"></path><path id="line_f05c63adf731" d="M 124.625 66 L 107 66 L 107 51 A 4 4 0 0 0 103 47 L 97 47" p="2afe4675a270" stroke="rgb(140,140,140)" fill="none" stroke-linecap="square" stroke-width="1"></path><path id="line_fdc7d005fad0" d="M 124.625 66 L 107 66 L 107 79 A 4 4 0 0 1 103 83 L 96.484375 83" p="2afe4675a270" stroke="rgb(140,140,140)" fill="none" stroke-linecap="square" stroke-width="1"></path><path id="line_2ca5b4455fd1" d="M 124.625 66 L 107 66 L 107 115 A 4 4 0 0 1 103 119 L 96.71875 119" p="2afe4675a270" stroke="rgb(140,140,140)" fill="none" stroke-linecap="square" stroke-width="1"></path></g><g transform="translate(0.5,0)"></g><g class="svg-summary-con" transform="translate(0.5,0.5)"></g></g><g transform="translate(50.265625, 30)" id="sdjakdjak8"><g id="subline_f89a855fe410" transform="translate(0.5,-0.5)"><path id="line_96bb4e1470e3" d="M 124.625 83 L 107 83 L 107 17 A 4 4 0 0 0 103 13 L 97.109375 13" p="f89a855fe410" stroke="rgb(140,140,140)" fill="none" stroke-linecap="square" stroke-width="1"></path><path id="line_f57f6b47508c" d="M 124.625 83 L 107 83 L 107 51 A 4 4 0 0 0 103 47 L 97 47" p="f89a855fe410" stroke="rgb(140,140,140)" fill="none" stroke-linecap="square" stroke-width="1"></path><path id="line_a1794ced2e99" d="M 124.625 83 L 107 83 L 107 83 L 96.484375 83" p="f89a855fe410" stroke="rgb(140,140,140)" fill="none" stroke-linecap="square" stroke-width="1"></path><path id="line_83aea7e5f52b" d="M 124.625 83 L 107 83 L 107 115 A 4 4 0 0 1 103 119 L 96.25 119" p="f89a855fe410" stroke="rgb(140,140,140)" fill="none" stroke-linecap="square" stroke-width="1"></path><path id="line_67bde2bf61eb" d="M 124.625 83 L 107 83 L 107 149 A 4 4 0 0 1 103 153 L 97 153" p="f89a855fe410" stroke="rgb(140,140,140)" fill="none" stroke-linecap="square" stroke-width="1"></path></g><g transform="translate(0.5,0)"></g><g class="svg-summary-con" transform="translate(0.5,0.5)"></g></g><g transform="translate(423.03125, 577)" id="sdjakdjak9"><g id="subline_root" transform="translate(0.5,-0.5)"></g><g transform="translate(0.5,0)"></g><g class="svg-summary-con" transform="translate(0.5,0.5)"></g></g><g transform="translate(-9514.96875, -9390)" id="sdjakdjak10"><defs></defs><g class="svg-topic-con" transform="translate(0.5,0.5)"><path part="right" sub="true" id="line_701d6115d7b4" d="M 10000 10000 C 10000 10000 10010 9742 10142 9742" stroke="rgb(170,170,170)" fill="none" stroke-width="1"></path><path part="right" sub="true" id="line_c7481ba1d296" d="M 10000 10000 C 10000 10000 10010 9947 10142 9947" stroke="rgb(170,170,170)" fill="none" stroke-width="1"></path><path part="right" sub="true" id="line_0c6ff2af3504" d="M 10000 10000 C 10000 10000 10010 10205 10142 10205" stroke="rgb(170,170,170)" fill="none" stroke-width="1"></path><path part="left" sub="true" id="line_f89a855fe410" d="M 10000 10000 C 10000 10000 9990 9503 9858 9503" stroke="rgb(170,170,170)" fill="none" stroke-width="1"></path><path part="left" sub="true" id="line_2afe4675a270" d="M 10000 10000 C 10000 10000 9990 9678 9858 9678" stroke="rgb(170,170,170)" fill="none" stroke-width="1"></path><path part="left" sub="true" id="line_ea8f801a2449" d="M 10000 10000 C 10000 10000 9990 9887 9858 9887" stroke="rgb(170,170,170)" fill="none" stroke-width="1"></path><path part="left" sub="true" id="line_3e4080d32525" d="M 10000 10000 C 10000 10000 9990 10113 9858 10113" stroke="rgb(170,170,170)" fill="none" stroke-width="1"></path><path part="left" sub="true" id="line_f9a59b2bd9ab" d="M 10000 10000 C 10000 10000 9990 10305 9858 10305" stroke="rgb(170,170,170)" fill="none" stroke-width="1"></path><path part="left" sub="true" id="line_12d9a4dfb0fc" d="M 10000 10000 C 10000 10000 9990 10497 9858 10497" stroke="rgb(170,170,170)" fill="none" stroke-width="1"></path></g><g class="svg-connection-con" transform="translate(0.5,0.5)"></g></g><g id="root"><rect x="423.03125" y="577" rx="5px" ry="5px" width="124" height="66" style="fill: #50C28B; stroke:none;"></rect><g><text y="584" text-anchor="start" align="top" anchor="start" font-family="微软雅黑" font-size="25px" font-weight="normal" fill="rgb(255, 255, 255)"><tspan x="435.03125" dy="35"><tspan>QSphere</tspan></tspan></text></g></g><g></g></svg>