<svg xmlns="http://www.w3.org/2000/svg" xmlns:xlink="http://www.w3.org/1999/xlink" id="processonSvg1000" viewBox="194.0 169.0 521.0 374.0" width="521.0" height="374.0"><defs id="ProcessOnDefs1001"/><g id="ProcessOnG1002"><path id="ProcessOnPath1003" d="M194.0 169.0H715.0V543.0H194.0V169.0Z" fill="#ffffff"/><g id="ProcessOnG1004"><g id="ProcessOnG1005" transform="matrix(1.0,0.0,0.0,1.0,541.0,189.0)" opacity="1.0"><path id="ProcessOnPath1006" d="M0 0L154.0 0L154.0 334.0L0 334.0Z" stroke="#323232" stroke-width="2.0" stroke-dasharray="none" opacity="1.0" fill="none"/><path id="ProcessOnPath1007" d="M0 0L154.0 0L154.0 40L0 40Z" stroke="#323232" stroke-width="2.0" stroke-dasharray="none" opacity="1.0" fill="#ffffff"/><g id="ProcessOnG1008" transform="matrix(1.0,0.0,0.0,1.0,10.0,10.0)"><text id="ProcessOnText1009" fill="#000000" font-size="16" x="66.0" y="16.4" font-family="微软雅黑" size="16" text-anchor="middle" font-weight="normal" font-style="normal" family="微软雅黑" text-decoration="none">Tracker Server</text></g></g><g id="ProcessOnG1010" transform="matrix(1.0,0.0,0.0,1.0,214.0,189.0)" opacity="1.0"><path id="ProcessOnPath1011" d="M0 0L250.0 0L250.0 334.0L0 334.0Z" stroke="#323232" stroke-width="2.0" stroke-dasharray="none" opacity="1.0" fill="none"/><path id="ProcessOnPath1012" d="M0 0L250.0 0L250.0 40L0 40Z" stroke="#323232" stroke-width="2.0" stroke-dasharray="none" opacity="1.0" fill="#ffffff"/><g id="ProcessOnG1013" transform="matrix(1.0,0.0,0.0,1.0,10.0,10.0)"><text id="ProcessOnText1014" fill="#000000" font-size="16" x="114.0" y="16.4" font-family="微软雅黑" size="16" text-anchor="middle" font-weight="normal" font-style="normal" family="微软雅黑" text-decoration="none">QSphere</text></g></g><g id="ProcessOnG1015" transform="matrix(1.0,0.0,0.0,1.0,226.5,462.5)" opacity="1.0"><path id="ProcessOnPath1016" d="M0 4Q0 0 4 0L215.5 0Q219.5 0 219.5 4L219.5 29.0Q219.5 33.0 215.5 33.0L4 33.0Q0 33.0 0 29.0Z" stroke="#323232" stroke-width="2.0" stroke-dasharray="none" opacity="1.0" fill="#ffffff"/><g id="ProcessOnG1017" transform="matrix(1.0,0.0,0.0,1.0,10.0,8.375)"><text id="ProcessOnText1018" fill="#000000" font-size="13" x="98.75" y="13.325" font-family="微软雅黑" size="13" text-anchor="middle" font-weight="normal" font-style="normal" family="微软雅黑" text-decoration="none">PostgresQL</text></g></g><g id="ProcessOnG1019" transform="matrix(1.0,0.0,0.0,1.0,323.0,358.0)" opacity="1.0"><path id="ProcessOnPath1020" d="M0 4Q0 0 4 0L119.0 0Q123.0 0 123.0 4L123.0 29.0Q123.0 33.0 119.0 33.0L4 33.0Q0 33.0 0 29.0Z" stroke="#323232" stroke-width="2.0" stroke-dasharray="none" opacity="1.0" fill="#ffffff"/><g id="ProcessOnG1021" transform="matrix(1.0,0.0,0.0,1.0,10.0,8.375)"><text id="ProcessOnText1022" fill="#000000" font-size="13" x="50.5" y="13.325" font-family="微软雅黑" size="13" text-anchor="middle" font-weight="normal" font-style="normal" family="微软雅黑" text-decoration="none">Service</text></g></g><g id="ProcessOnG1023" transform="matrix(1.0,0.0,0.0,1.0,226.5,256.0)" opacity="1.0"><path id="ProcessOnPath1024" d="M0 4Q0 0 4 0L215.5 0Q219.5 0 219.5 4L219.5 30.0Q219.5 34.0 215.5 34.0L4 34.0Q0 34.0 0 30.0Z" stroke="#323232" stroke-width="2.0" stroke-dasharray="none" opacity="1.0" fill="#ffffff"/><g id="ProcessOnG1025" transform="matrix(1.0,0.0,0.0,1.0,10.0,8.875)"><text id="ProcessOnText1026" fill="#000000" font-size="13" x="98.75" y="13.325" font-family="微软雅黑" size="13" text-anchor="middle" font-weight="normal" font-style="normal" family="微软雅黑" text-decoration="none">UI</text></g></g><g id="ProcessOnG1027" transform="matrix(1.0,0.0,0.0,1.0,226.5,358.0)" opacity="1.0"><path id="ProcessOnPath1028" d="M0 4Q0 0 4 0L83.5 0Q87.5 0 87.5 4L87.5 29.0Q87.5 33.0 83.5 33.0L4 33.0Q0 33.0 0 29.0Z" stroke="#323232" stroke-width="2.0" stroke-dasharray="none" opacity="1.0" fill="#ffffff"/><g id="ProcessOnG1029" transform="matrix(1.0,0.0,0.0,1.0,10.0,8.375)"><text id="ProcessOnText1030" fill="#000000" font-size="13" x="32.75" y="13.325" font-family="微软雅黑" size="13" text-anchor="middle" font-weight="normal" font-style="normal" family="微软雅黑" text-decoration="none">Grafana</text></g></g><g id="ProcessOnG1031" transform="matrix(1.0,0.0,0.0,1.0,255.5,399.0)" opacity="1.0"><path id="ProcessOnPath1032" d="M14.75 0L29.5 14.75L19.765 14.75L19.765 54.0L9.735000000000001 54.0L9.735000000000001 14.75L0 14.75L14.75 0Z" stroke="#323232" stroke-width="2.0" stroke-dasharray="none" opacity="1.0" fill="#ffffff"/></g><g id="ProcessOnG1033" transform="matrix(1.0,0.0,0.0,1.0,569.0,253.5)" opacity="1.0"><path id="ProcessOnPath1034" d="M12.959999999999999 27.299999999999997C-10.8 19.5 4.32 13.649999999999999 9.719999999999999 11.7C7.5600000000000005 1.9500000000000002 34.56 0.0 45.36 3.9000000000000004C54.0 -1.9500000000000002 81.0 0.0 81.0 5.85C102.6 3.9000000000000004 111.24000000000001 11.7 102.6 21.450000000000003C110.16 29.25 102.6 39.0 77.75999999999999 35.1C72.36 40.17 50.76 40.17 45.36 35.1C34.56 39.0 12.959999999999999 37.05 12.959999999999999 27.299999999999997Z" stroke="#323232" stroke-width="2.0" stroke-dasharray="none" opacity="1.0" fill="#ffffff"/><g id="ProcessOnG1035" transform="matrix(1.0,0.0,0.0,1.0,10.0,11.375)"><text id="ProcessOnText1036" fill="#000000" font-size="13" x="43.0" y="13.325" font-family="微软雅黑" size="13" text-anchor="middle" font-weight="normal" font-style="normal" family="微软雅黑" text-decoration="none">Jira</text></g></g><g id="ProcessOnG1037" transform="matrix(1.0,0.0,0.0,1.0,366.0,396.0)" opacity="1.0"><path id="ProcessOnPath1038" d="M15.0 0L30.0 15.0L20.1 15.0L20.1 45.0L30.0 45.0L15.0 60.0L0 45.0L9.9 45.0L9.9 15.0L0 15.0L15.0 0Z" stroke="#323232" stroke-width="2.0" stroke-dasharray="none" opacity="1.0" fill="#ffffff"/></g><g id="ProcessOnG1039" transform="matrix(1.0,0.0,0.0,1.0,255.5,297.0)" opacity="1.0"><path id="ProcessOnPath1040" d="M14.75 0L29.5 14.75L19.765 14.75L19.765 54.0L9.735000000000001 54.0L9.735000000000001 14.75L0 14.75L14.75 0Z" stroke="#323232" stroke-width="2.0" stroke-dasharray="none" opacity="1.0" fill="#ffffff"/></g><g id="ProcessOnG1041" transform="matrix(1.0,0.0,0.0,1.0,366.0,294.0)" opacity="1.0"><path id="ProcessOnPath1042" d="M15.0 0L30.0 15.0L20.1 15.0L20.1 45.0L30.0 45.0L15.0 60.0L0 45.0L9.9 45.0L9.9 15.0L0 15.0L15.0 0Z" stroke="#323232" stroke-width="2.0" stroke-dasharray="none" opacity="1.0" fill="#ffffff"/></g><g id="ProcessOnG1043" transform="matrix(1.0,0.0,0.0,1.0,569.0,319.0)" opacity="1.0"><path id="ProcessOnPath1044" d="M12.959999999999999 27.299999999999997C-10.8 19.5 4.32 13.649999999999999 9.719999999999999 11.7C7.5600000000000005 1.9500000000000002 34.56 0.0 45.36 3.9000000000000004C54.0 -1.9500000000000002 81.0 0.0 81.0 5.85C102.6 3.9000000000000004 111.24000000000001 11.7 102.6 21.450000000000003C110.16 29.25 102.6 39.0 77.75999999999999 35.1C72.36 40.17 50.76 40.17 45.36 35.1C34.56 39.0 12.959999999999999 37.05 12.959999999999999 27.299999999999997Z" stroke="#323232" stroke-width="2.0" stroke-dasharray="none" opacity="1.0" fill="#ffffff"/><g id="ProcessOnG1045" transform="matrix(1.0,0.0,0.0,1.0,10.0,11.375)"><text id="ProcessOnText1046" fill="#000000" font-size="13" x="43.0" y="13.325" font-family="微软雅黑" size="13" text-anchor="middle" font-weight="normal" font-style="normal" family="微软雅黑" text-decoration="none">Zentao</text></g></g><g id="ProcessOnG1047" transform="matrix(1.0,0.0,0.0,1.0,572.0,385.5)" opacity="1.0"><path id="ProcessOnPath1048" d="M12.959999999999999 27.299999999999997C-10.8 19.5 4.32 13.649999999999999 9.719999999999999 11.7C7.5600000000000005 1.9500000000000002 34.56 0.0 45.36 3.9000000000000004C54.0 -1.9500000000000002 81.0 0.0 81.0 5.85C102.6 3.9000000000000004 111.24000000000001 11.7 102.6 21.450000000000003C110.16 29.25 102.6 39.0 77.75999999999999 35.1C72.36 40.17 50.76 40.17 45.36 35.1C34.56 39.0 12.959999999999999 37.05 12.959999999999999 27.299999999999997Z" stroke="#323232" stroke-width="2.0" stroke-dasharray="none" opacity="1.0" fill="#ffffff"/><g id="ProcessOnG1049" transform="matrix(1.0,0.0,0.0,1.0,10.0,11.375)"><text id="ProcessOnText1050" fill="#000000" font-size="13" x="43.0" y="13.325" font-family="微软雅黑" size="13" text-anchor="middle" font-weight="normal" font-style="normal" family="微软雅黑" text-decoration="none">Bugzilla</text></g></g><g id="ProcessOnG1051" transform="matrix(1.0,0.0,0.0,1.0,572.0,456.0)" opacity="1.0"><path id="ProcessOnPath1052" d="M12.959999999999999 27.299999999999997C-10.8 19.5 4.32 13.649999999999999 9.719999999999999 11.7C7.5600000000000005 1.9500000000000002 34.56 0.0 45.36 3.9000000000000004C54.0 -1.9500000000000002 81.0 0.0 81.0 5.85C102.6 3.9000000000000004 111.24000000000001 11.7 102.6 21.450000000000003C110.16 29.25 102.6 39.0 77.75999999999999 35.1C72.36 40.17 50.76 40.17 45.36 35.1C34.56 39.0 12.959999999999999 37.05 12.959999999999999 27.299999999999997Z" stroke="#323232" stroke-width="2.0" stroke-dasharray="none" opacity="1.0" fill="#ffffff"/><g id="ProcessOnG1053" transform="matrix(1.0,0.0,0.0,1.0,10.0,11.375)"><text id="ProcessOnText1054" fill="#000000" font-size="13" x="43.0" y="13.325" font-family="微软雅黑" size="13" text-anchor="middle" font-weight="normal" font-style="normal" family="微软雅黑" text-decoration="none">TestLink</text></g></g><g id="ProcessOnG1055" transform="matrix(1.0,0.0,0.0,1.0,474.0,348.0)" opacity="1.0"><path id="ProcessOnPath1056" d="M0 16.0L16.0 0L16.0 10.56L55.0 10.56L55.0 21.44L16.0 21.44L16.0 32.0L0 16.0Z" stroke="#323232" stroke-width="2.0" stroke-dasharray="none" opacity="1.0" fill="#ffffff"/></g></g></g></svg>